<svg xmlns="http://www.w3.org/2000/svg" width="16" height="15" viewBox="0 0 16 15">
  <defs>
    <style>
      .cls-1 {
        fill: #3b3b3b;
        fill-rule: evenodd;
      }
    </style>
  </defs>
  <path id="User_Male_" data-name="User (Male)" class="cls-1" d="M294,254.25a14.411,14.411,0,0,0-4.52-2.062,10.425,10.425,0,0,0,1.38-2.748,6.26,6.26,0,0,0,.18-2.062,9.165,9.165,0,0,0-.04-2.1,3.155,3.155,0,0,0-6.06,0,10.485,10.485,0,0,0-.04,2.1,5.334,5.334,0,0,0,.22,2.062,9.1,9.1,0,0,0,1.36,2.748A14.814,14.814,0,0,0,282,254.25c-2,.942-2,1.983-2,1.983v0.393A1.534,1.534,0,0,0,281.46,258h13.06a1.457,1.457,0,0,0,1.48-1.433v-0.334S295.98,255.192,294,254.25Z" transform="translate(-280 -243)"/>
</svg>
